<svg width="27" height="27" viewBox="0 0 27 27" fill="none" xmlns="http://www.w3.org/2000/svg">
<path d="M14.8861 0C17.317 0 17.8305 0.0273504 19.0723 0.0810384C20.5035 0.148908 21.49 0.377842 22.3408 0.716178C23.2321 1.0535 23.9887 1.52656 24.7312 2.26908C25.4878 3.01159 25.9466 3.76829 26.2981 4.65971C26.6354 5.51062 26.8521 6.49625 26.919 7.94177C26.9868 9.22522 27 9.72462 27 12.4262V14.5869C27 17.2886 26.9868 17.788 26.919 19.0714C26.8957 20.2515 26.6698 21.3709 26.2748 22.4082L26.2971 22.3403C25.9456 23.2317 25.4868 23.9884 24.7443 24.7309C23.9877 25.4876 23.2321 25.9465 22.3408 26.298C21.49 26.6353 20.5045 26.8521 19.0723 26.919C17.789 26.9868 17.2765 27 14.5752 27H12.4279C9.72656 27 9.22722 26.9868 7.93075 26.919C6.75076 26.8957 5.63154 26.6698 4.59437 26.2747L4.66223 26.297C3.72735 25.9394 2.93022 25.4116 2.27287 24.7441L2.27186 24.7431C1.59729 24.0826 1.06452 23.2803 0.720149 22.3838L0.704955 22.3383C0.333233 21.3699 0.107364 20.2495 0.0840679 19.0795V19.0694C0.030386 18.0138 0 16.777 0 15.5341C0 15.3051 0.00101265 15.0762 0.00303838 14.8483V14.8827V12.1142C0.00303838 9.68309 0.030386 9.16951 0.0840679 7.92759C0.15193 6.49625 0.380838 5.5096 0.704955 4.6587C1.05642 3.76728 1.51525 3.01058 2.27186 2.26806C2.92516 1.59241 3.72431 1.06262 4.61867 0.729347L4.66223 0.715165C5.62952 0.339349 6.74873 0.108389 7.9186 0.0810384H7.93075C9.17354 0.0273504 9.68605 0 12.1169 0H14.8861ZM14.9135 2.43115H12.0906C9.75391 2.43115 9.25457 2.45851 8.03913 2.51219C6.72949 2.56588 6.01339 2.78266 5.54038 2.97107C4.90532 3.21419 4.45965 3.51099 3.98766 3.98406C3.51566 4.45712 3.21788 4.90283 2.97479 5.53696C2.79956 6.01002 2.56964 6.72518 2.51596 8.04915C2.46228 9.26473 2.43493 9.75096 2.43493 12.1011V14.9101C2.43493 17.2602 2.46228 17.7464 2.51596 18.962C2.56964 20.2718 2.7864 20.988 2.97479 21.461C3.21788 22.0962 3.51465 22.5419 3.98766 23.0139C4.46067 23.486 4.90633 23.7838 5.54038 24.0269C6.01339 24.2163 6.72848 24.4321 8.05229 24.4858C9.36193 24.5537 9.83494 24.5668 12.752 24.5668H14.251C17.1813 24.5668 17.6411 24.5537 18.9639 24.4858C20.2736 24.4321 20.9896 24.2153 21.4627 24.0269C22.0977 23.7838 22.5434 23.487 23.0154 23.0139C23.4874 22.5409 23.7852 22.0951 24.0282 21.461C24.2177 20.988 24.4334 20.2728 24.4871 18.962C24.5549 17.638 24.5681 17.1791 24.5681 14.2486V12.7626C24.5681 9.832 24.5549 9.35893 24.4871 8.03497C24.4334 6.72518 24.2166 6.00901 24.0282 5.53594C23.7993 4.92714 23.454 4.40748 23.0164 3.98406L23.0154 3.98304C22.59 3.54442 22.0714 3.19899 21.491 2.97918L21.4627 2.97006C20.7212 2.69048 19.8644 2.52334 18.969 2.51118H18.9639C17.9227 2.45851 16.7042 2.42812 15.4776 2.42812C15.2791 2.42812 15.0806 2.42913 14.8821 2.43014H14.9124L14.9135 2.43115ZM13.5086 6.56412C17.3383 6.56412 20.4437 9.66891 20.4437 13.5C20.4437 17.3311 17.3393 20.4359 13.5086 20.4359C9.67896 20.4359 6.57351 17.3311 6.57351 13.5C6.57351 9.66891 9.67795 6.56412 13.5086 6.56412ZM13.5086 8.99527C11.021 8.99527 9.00439 11.0121 9.00439 13.5C9.00439 15.9879 11.021 18.0047 13.5086 18.0047C15.9962 18.0047 18.0128 15.9879 18.0128 13.5C18.0128 11.0121 15.9962 8.99527 13.5086 8.99527ZM20.7071 4.67288C21.6024 4.67288 22.3276 5.39818 22.3276 6.29365C22.3276 7.18913 21.6024 7.91442 20.7071 7.91442C19.8117 7.91442 19.0865 7.18913 19.0865 6.29365C19.0865 5.39818 19.8117 4.67288 20.7071 4.67288Z" fill="white"/>
</svg>
